<?xml version="1.0" encoding="utf-8"?>
<!-- Generator: Adobe Illustrator 15.0.2, SVG Export Plug-In . SVG Version: 6.00 Build 0)  -->
<!DOCTYPE svg PUBLIC "-//W3C//DTD SVG 1.1//EN" "http://www.w3.org/Graphics/SVG/1.1/DTD/svg11.dtd">
<svg version="1.1" id="Layer_1" xmlns="http://www.w3.org/2000/svg" xmlns:xlink="http://www.w3.org/1999/xlink" x="0px" y="0px"
	 width="443px" height="399px" viewBox="0 0 443 399" enable-background="new 0 0 443 399" xml:space="preserve">
<path d="M212.296,3.909c2.146,1.854,7.325,0.675,11,1c-1.291,2.709-4.445,3.555-4,8c4.206,0.205,4.2-3.8,8-4c0,3.666,0,7.334,0,11
	c-2.592-1.076-3.719-3.615-7-4c-2.353,1.457,1.233,5.354,3,6c-1.711,2.289-7.633,0.367-11,1c1.544-2.123,2.877-4.456,4-7
	c-3.737-0.071-5.728,1.607-7,4c-2.289-1.711-0.367-7.633-1-11c2.524,1.475,4.468,3.533,8,4
	C216.169,8.702,212.423,8.116,212.296,3.909z"/>
<path d="M83.296,21.909c0,1.334,0,2.666,0,4c1.987-0.013,1.271-2.729,4-2c-0.086,1.42-0.165,2.832,1,3c-0.31,1.357-2.504,0.83-4,1
	c1.035,2.632,3.965,3.368,5,6c0.729,2.729-1.987,2.013-2,4c-4.18-0.154-5.463-3.203-5-8c-0.869-2.953-1.497,2.32-4,1
	c0.086-1.42,0.165-2.832-1-3c0.31-1.357,2.504-0.83,4-1c-0.561-1.439-1.561-2.439-3-3C79.146,22.426,80.813,21.759,83.296,21.909z"
	/>
<path d="M96.296,21.909c5.938-1.336,4.816,7.156-1,5C94.979,24.591,95.457,23.069,96.296,21.909z"/>
<path d="M103.296,22.909c2.545,0.122,3.878,1.455,4,4c-1.16,0.84-2.682,1.318-5,1C101.979,25.591,102.457,24.069,103.296,22.909z"/>
<path d="M215.296,24.909c0,3,0,6,0,9c-3.129-0.204-7.342,0.674-9-1C208.054,29,209.827,25.106,215.296,24.909z"/>
<path d="M219.296,24.909c5.543,0.456,8.543,3.456,9,9c-3.129-0.204-7.342,0.674-9-1C219.296,30.243,219.296,27.575,219.296,24.909z"
	/>
<path d="M91.296,25.909c2.065,0.602,3.787,1.547,3,5c-3.078,0.7-1.922,0.7-5,0C88.439,27.719,90.871,27.816,91.296,25.909z"/>
<path d="M106.296,28.909c3.418-0.418,5.698,0.302,5,4C108.814,35.272,105.021,33.307,106.296,28.909z"/>
<path d="M73.296,33.909c0,1.334,0,2.666,0,4c-1.334,0-2.666,0-4,0C66.185,35.153,70.541,30.797,73.296,33.909z"/>
<path d="M80.296,33.909c0.464,3.131-0.869,4.464-4,4C73.185,35.153,77.541,30.797,80.296,33.909z"/>
<path d="M184.296,37.909c0.537,3.537-0.848,5.152-3,6c-3.201-0.133-4.399-2.268-4-6C178.63,36.482,182.962,36.482,184.296,37.909z"
	/>
<path d="M258.297,38.909c-0.447,3.221-1.527,5.807-6,5C247.09,39.604,254.576,33.934,258.297,38.909z"/>
<path d="M187.296,37.909c2.465-0.132,4.818-0.151,6,1c0.99,6.162-3.996,6.881-7,4C185.47,40.083,187.706,40.318,187.296,37.909z"/>
<path d="M206.296,38.909c5.347-2.32,14.99-0.343,22-1C226.793,49.362,209.04,48.634,206.296,38.909z"/>
<path d="M242.297,37.909c2.465-0.132,4.816-0.151,6,1c0.537,3.537-0.85,5.152-3,6C241.127,44.88,240.795,41.016,242.297,37.909z"/>
<path d="M69.296,38.909c2.156,5.816-6.336,6.938-5,1C65.457,39.069,66.979,38.591,69.296,38.909z"/>
<path d="M175.296,40.909c0.99,6.162-3.996,6.881-7,4C167.396,38.835,172.535,38.272,175.296,40.909z"/>
<path d="M266.297,44.909c-1.988,0.013-1.271,2.729-4,2C253.916,43.11,267.316,33.281,266.297,44.909z"/>
<path d="M202.296,45.909c-1.334,1.427-5.666,1.427-7,0C193.479,38.246,204.114,38.246,202.296,45.909z"/>
<path d="M238.297,39.909c1.953,2.735,1.953,4.265,0,7C230.621,48.714,230.902,38.36,238.297,39.909z"/>
<path d="M209.296,43.909c1.427,1.334,1.427,5.666,0,7c-3.537,0.537-5.152-0.848-6-3C203.429,44.708,205.564,43.51,209.296,43.909z"
	/>
<path d="M230.297,43.909c1.426,1.334,1.426,5.666,0,7C222.633,52.727,222.633,42.091,230.297,43.909z"/>
<path d="M164.296,44.909c1.479,0.521,2.521,1.479,4,2c0.99,6.162-3.996,6.881-7,4C160.758,47.371,162.914,46.526,164.296,44.909z"/>
<path d="M70.296,49.909c-3.078,0.7-1.922,0.7-5,0c-0.698-3.698,1.582-4.418,5-4C70.296,47.243,70.296,48.575,70.296,49.909z"/>
<path d="M273.297,46.909c0.791,3.459-1.113,4.222-2,6c-2.488,0.154-3.096-1.57-5-2c0-1.334,0-2.666,0-4
	C267.631,45.482,271.963,45.482,273.297,46.909z"/>
<path d="M134.296,81.909c7.504,5.496,13.951,12.049,19,20c-4.496,2.207-8.929-0.835-12-3c6.057,5.282,11.965,19.364,14,32
	c1.179,1.756,4.958-2.309,8-2c-7.158,9.509-14.796,18.537-19,31c-5.275-3.391-7.95-9.383-14-12
	c14.529,16.24,30.336,33.906,34,58.001c-1.762,0.902-1.652,3.679-4,3.998c-3.938-0.062-0.682-7.317-5-7
	c-1.734,3.601-1.395,9.273-7,9.001c-4.557-0.115,1.821-3.312,0-7c-1.488-0.146-8.975,6.062-13,1.001
	c-0.316-3.424,4.625,0.474,5-4.001c0.16-2.826-3.004-2.33-3-5c-0.051-5.662,9.488-6.133,5-13c-3.817-0.816-3.871,2.129-5,4.001
	c-3.32-2.873-0.723-6.146-1-11.001c-2.104,2.229-2.966,5.701-7,6c-2.688-2.451,2.07-7.167-1-10c-1.438,2.229-2.713,4.62-4,7
	c-6.021-1.7-17.475-1.945-21,2c7.662,10.004,24.68,10.652,23,30c-4.335,6.331-11.358,9.975-16,15.998
	c4.834,9.457,11.283,21.577,24,22.002c4.811,0.159,9.225-4.787,15-3c2.957,0.915,9.625,9.437,7,14c-3.248-0.418-2.881-4.453-7-4
	c-3.865,2.135-0.348,11.651-7,11c0-2,0-4,0-6c-9.561,4.838-17.869,0.188-22-5.999c-3.298,0.576-1.434,3.773-1,5.999
	c-10.008,0.008-8.18-11.82-13-17c-2.805,1.6,1.404,4.502,0,7.999c-9.084,0.974-8.004-16.578-15-20.999c0.221-4.445,6.3-3.033,8-6
	c4.666-9.484,0.181-21.354-7-25c3.835,30.937-18.567,42.291-37,51.999c-1.449,0.765-5.078,2.552-6,4.001
	c-7.494,11.79,7.969,41.995,21,25c6.035,0.965,10.348,3.651,15,6c0.16,3.159,0.035,6.034-2,7c-3.181,2.887-1.396-5.257-6-4
	c-3.15,1.165,1.01,10.397-4,11.999c-3.372-0.065-0.177-2.286-3-3.998c-4.439,10.318-21.152-2.829-24,7.999
	c-6.785-0.013-5.754-10.347-2-13c-1.7-5.675-8.58,1.552-9,0c-3.486-6.779,2.024-12.431,1-19.999c-2.91,2.424-4.197,6.468-7,8.999
	c-7.127-13.854,4.541-23.767,3-34.998c3.769-0.771,4.78,1.219,8,0.999c18.425-8.909,13.068-41.602,26-56.001
	c-5.577,2.764-9.36,15.967-17,20c-0.789,11.088-12.065,16.313-24,13c2.118-3.216,7.907-2.761,9-7c-6.777-0.568-17.152,0.922-19-7
	c1.807-2.702,3.669,2.919,8,1c-0.606-3.062-2.123-5.21-3-8c-6.037-26.831,43.52-42.823,39-68c-0.99-5.516-6.781-9.015-15-6
	c10.692,26.105-26.893,26.992-37,42c-3.477-15.814,18.434-14.896,22-27c-3.988,0.363-8.4,8.92-17,8c10.781-4.219,8.404-21.596,19-26
	c11.227,0.524,27.884-9.274,33,5c1.36,3.795,0.664,10.137,0,13c-5.237,22.607-39.93,31.693-39,56c0.628,16.419,18.451,11.403,26,2
	c14.924-18.59,34.174-57.154,41-84c-5.358,4.642-5.379,14.621-14,16c4.426-8.574,2.982-23.018,5-34c-5.819,6.514-2.449,22.217-11,26
	c-1.691-12.605,0.051-26.115,5-37c-6.238,3.096-3.091,15.576-13,15c5.164-4.502,0.6-18.734,7-22c-2.665-3.668-7.568-5.098-8-11
	c4.694-2.639,11.557-3.11,12-10c2.729-0.729,2.013,1.987,4,2c8.635-8.365,25.539-8.461,34-17c6.539,2.448,8.558,0.805,16,0
	c0.438,3.42,2.274,8.995,0,12c2.986,2.68,6.686,4.648,12,5c-1.11,3.223-5.503,3.164-10,3c7.32,5.346,13.086,12.247,19,19
	C143.58,89.865,139.648,83.434,134.296,81.909z M105.296,64.909c0.553,4.114,4.078,5.256,9,5c1.141-1.979,5.537-9.838,2-10
	C113.573,62.52,109.195,63.475,105.296,64.909z M80.296,74.909c4.325,0.342,4.465,4.869,10,4c2.914-1.419,4.453-4.213,4-9
	C89.507,71.452,84.24,72.52,80.296,74.909z M93.296,82.909c0,1.666,0,3.334,0,5c3.545,0.211,1.976-4.691,6-4
	c-1.186,7.574,6.052,0.56,7,6c-5.38,8.15,1.789,20.473,9,16c7.896-4.898-0.242-14.123-7-18c1.566-4.926,5.293-3.528,2-9
	c3.056-0.723,3.645,1.022,6,1C112.864,70.032,99.6,80.558,93.296,82.909z"/>
<path d="M211.296,50.909c0.666,0,1.334,0,2,0c3.787,1.24,2.146,13.15,1,16C208.057,66.816,212.755,55.784,211.296,50.909z"/>
<path d="M220.296,50.909c1,0,2,0,3,0c-0.649,5.018,1.312,12.645-1,16C216.518,67.077,219.657,53.929,220.296,50.909z"/>
<path d="M164.296,54.909c0,1.666,0,3.334,0,5C156.162,64.542,155.806,49.826,164.296,54.909z"/>
<path d="M277.297,54.909c0.537,3.537-0.85,5.152-3,6c-3.201-0.133-4.4-2.268-4-6C271.631,53.482,275.963,53.482,277.297,54.909z"/>
<path fill="#FFFFFF" d="M116.296,59.909c3.537,0.162-0.859,8.021-2,10c-4.922,0.256-8.447-0.886-9-5
	C109.195,63.475,113.573,62.52,116.296,59.909z"/>
<path d="M163.296,67.909c-1.182,1.151-3.535,1.132-6,1C152.549,62.145,164.994,58.623,163.296,67.909z"/>
<path d="M278.297,62.909c0,1.666,0,3.334,0,5c-1.184,1.151-3.535,1.132-6,1C269.459,64.315,273.703,60.071,278.297,62.909z"/>
<path d="M243.297,62.909c5.619,3.938,4.031,12.721,0,17C237.137,76.513,239.535,66.918,243.297,62.909z"/>
<path d="M190.296,63.909c6.965,2.122,6.505,10.611,3,16C187.557,76.385,186.662,69.973,190.296,63.909z"/>
<path fill="#FFFFFF" d="M346.297,71.909c-2.063,2.602-7.938,1.398-10,4C332.299,68.852,342.898,67.497,346.297,71.909z"/>
<path fill="#FFFFFF" d="M94.296,69.909c0.453,4.787-1.086,7.581-4,9c-5.535,0.869-5.675-3.658-10-4
	C84.24,72.52,89.507,71.452,94.296,69.909z"/>
<path d="M164.296,70.909c-0.162,1.162,0.221,1.779,1,2c0.475,3.141-1.247,4.086-3,5c-3.201-0.133-4.399-2.268-4-6
	C159.479,70.758,161.832,70.777,164.296,70.909z"/>
<path d="M277.297,72.909c-0.447,3.221-1.527,5.807-6,5C266.438,73.953,273.473,67.832,277.297,72.909z"/>
<path fill="#FFFFFF" d="M116.296,79.909c-2.355,0.022-2.944-1.723-6-1c3.293,5.472-0.434,4.074-2,9c6.758,3.877,14.896,13.102,7,18
	c-7.211,4.473-14.38-7.85-9-16c-0.948-5.44-8.186,1.574-7-6c-4.024-0.691-2.455,4.211-6,4c0-1.666,0-3.334,0-5
	C99.6,80.558,112.864,70.032,116.296,79.909z"/>
<path fill="#FFFFFF" d="M255.297,118.909c-8.973-0.312-18.535-6.905-31-8c-16.327-1.434-31.215,3.886-43,9
	C154.159,98.256,273.268,94.932,255.297,118.909z"/>
<path d="M320.297,115.909c2.107,10.588-8.596,14.502-14,9C304.023,114.487,315.186,110.116,320.297,115.909z M309.297,123.909
	c4.5,2.213,8.404-1.357,9.002-6C315.051,113.956,307.666,117.026,309.297,123.909z"/>
<path fill="#FFFFFF" d="M318.299,117.909c-0.598,4.643-4.502,8.213-9.002,6C307.666,117.026,315.051,113.956,318.299,117.909z"/>
<path fill="#FFFFFF" d="M210.296,129.909c-1.065,7.061-14.914,3.885-18,1c-6.691-13.152,12.457-18.633,16-8
	C209.33,126.206,204.423,130.55,210.296,129.909z"/>
<path fill="#FFFFFF" d="M246.297,120.909c4.855-0.523,3.256,5.41,5,8c4.195,0.135,5.586-1.818,9,0c-3.049,5.285-5.434,11.234-11,14
	c-0.443-0.891-0.879-1.789-2-2c-0.178-3.512,3.377-3.289,4-6c-0.434-1.164-6.523,1.582-5-4c-3.043,0.958-2.025,5.975-7,5
	C237.076,130.087,245.043,126.518,246.297,120.909z"/>
<path d="M203.296,122.909"/>
<path fill="#FFFFFF" d="M181.296,128.909c0.857,3.19-1.574,3.093-2,5c1.912,2.754,4.246,5.088,7,7c-0.295,2.039-2.705,1.961-3,4
	c-3.245-1.755-4.999-5.001-7-8c-2.984-0.223-3.4,3.691-6,1C169.702,134.847,176.317,126.397,181.296,128.909z"/>
<path fill="#FFFFFF" d="M305.297,132.909c0.271,3.938-0.387,6.948-3,8C293.951,140.575,300.488,125.79,305.297,132.909z"/>
<path fill="#FFFFFF" d="M268.297,193.91c-16.023-0.644-34.635,1.3-49-1.001c0-19,0-38,0-57
	C251.516,139.356,265.58,160.958,268.297,193.91z M221.296,162.909c4.672,6.621,0.44,24.129,1,27c4.229,2.296,15.58-3.146,19,1.999
	c4.718-4.558,16.927-0.091,22-1.999c-1.387-26.43-17.659-45.938-41-51C220.71,143.897,226.871,157.478,221.296,162.909z"/>
<path fill="#FFFFFF" d="M166.296,138.909c5.239,2.094,7.572,7.096,13,9c-0.013,1.986-2.729,1.271-2,4c-5.444-1.889-8.1-6.566-13-9
	C164.816,141.431,165.775,140.388,166.296,138.909z"/>
<path fill="#FFFFFF" d="M258.297,186.909c-5.918-0.082-13.008,1.008-15-3c-3.928,2.354-12.6,5.104-17,0.999
	c0.178-7.821-1.234-17.233,3-20.999c-2.842-1.104-4.436-12.227-2-18c8.354-1.874,14.168,7.059,20,11
	C250.604,166.776,261.484,173.813,258.297,186.909z M245.297,161.909c-1.352,7.684,6.076,6.592,7,12c-14.469-0.236-2.1-25.406-18-21
	c-0.41,2.409,1.826,2.174,1,5c1.496,0.17,3.689-0.357,4,1c-2.039,0.295-1.961,2.705-4,3c-0.998-3.669-4.24-5.094-5-9
	c-0.059,0.609-0.15,1.184-1,1c-0.059-0.609-0.15-1.184-1-1c-1.867,7.273,13.988,15.551,0,15c0.225,1.891-1.127,2.206-1,4.001
	c5.381,2.263,5.965-2.396,11-3.001c1.834,1.166,3.385,2.613,5,4c-2.465-0.131-4.818-0.15-6,1c-0.826,2.826,1.408,2.591,1,5
	c-2.562,1.083-4.77-3.038-6,0c1.709,4.018,3.648,1.623,9,2c1.941-1.307-2.004-5.292,2-6c1.986,2.781,5.682,5.396,8,5
	c-0.092,1.575-2.551,0.783-2,3c1.994,2.421,1.578,1.005,4.998,1.999c-2.062-3.714,1.436-2.613,1.002-6.999
	c-1.35-1.984-6.982,0.314-7-3c2.486,0.109,3.096,1.873,5,0C251.676,169.53,248,166.204,245.297,161.909z"/>
<path fill="#FFFFFF" d="M163.296,148.909c12.228-2.793,10.377,16.111,1,16C155.755,164.808,153.024,151.257,163.296,148.909z
	 M168.296,155.909c-0.848-2.152-2.463-3.537-6-3c-1.427,1.334-1.427,5.666,0,7"/>
<path d="M162.296,159.909c-1.427-1.334-1.427-5.666,0-7"/>
<path fill="#FFFFFF" d="M312.297,172.909c-3.887,2.107-7.615,0.172-10-2C300.016,160.724,315.391,164.755,312.297,172.909z"/>
<path fill="#FFFFFF" d="M203.296,179.909c-1.387,1.963-8.486,1.221-10,0C195.5,177.13,200.423,180.05,203.296,179.909z"/>
<path fill="#FFFFFF" d="M380.297,178.909c7.441-1.752,11.484,5.908,7,10C381.471,188.982,377.887,184.05,380.297,178.909z"/>
<path fill="#FFFFFF" d="M211.296,180.909c0.162,1.162-0.221,1.779-1,2c-9.796-0.512-16.471,0.463-7-1
	C205.677,181.542,207.251,180.354,211.296,180.909z"/>
<path d="M208.296,199.909c2.39,1.61,1.188,6.812,5,7c-9.094,10.219,4.997,39.207-12,40c-1.406-1.31-3.595-5.294,0-6
	c4.082-0.308,0.534,2.087,1,4c9.049-4.479-2.547-4.136-4-5c-9.34-5.562-23-14.755-22-32c-0.678-2.322-2.554-3.447-4-5.001
	C180.735,200.648,195.341,205.45,208.296,199.909z M197.296,206.909c3.23,2.771,4.615,7.385,8,9.999c1.545-8.975-3.24-7.717,1-14
	C201.874,202.818,199.08,204.357,197.296,206.909z M203.296,224.909c1.495-7.328-4.458-15.421-11-18
	C192.198,212.839,199.703,219.382,203.296,224.909z M202.296,232.909c-0.932-9.502-8.401-19.951-17-25
	C189.633,217.573,195.898,225.307,202.296,232.909z M200.296,235.909c-5.847-8.158-11.847-21.479-19-25
	C183.06,223.812,189.457,232.083,200.296,235.909z"/>
<path fill="#FFFFFF" d="M206.296,202.908c-4.24,6.283,0.545,5.025-1,14c-3.385-2.614-4.77-7.229-8-9.999
	C199.08,204.357,201.874,202.818,206.296,202.908z"/>
<path fill="#FFFFFF" d="M287.297,206.909c-0.311,4.022,0.514,9.182-3,9.999c-3.613,0.947-1.396-3.938-2.002-5.999
	c-2.027,0.639-0.656,4.675-3,5c-3.779,0.854-3.537-4.478-1.998-6.001c-3.738,0.265-0.775,7.228-7,5.001
	c-0.332-3.998,1.781-5.55,1-10C275.02,203.564,282.084,206.514,287.297,206.909z"/>
<path fill="#FFFFFF" d="M384.297,206.909c1.428,6.891-6.102,10.459-10,6C373.26,206.408,380.484,202.536,384.297,206.909z"/>
<path d="M167.296,206.909c5.664,16.647,10.383,36.211,29,37c1.92,2.747,3.822,5.512,4,10c18.011,5.991,32.918,15.081,57,15
	c-13.987,19.296-51.329,14.126-70,2c-2.225,1.438-4.822,2.511-9,2c-13.371-17.63-29.002-32.998-34-59
	C153.894,213.382,162.016,215.738,167.296,206.909z M176.296,249.909c-0.545,7.688-6.535,23.313,8,19.999
	c-1.959-2.041-5.904-2.094-6-5.999c0.366-2.968,1.733-4.935,4-6c0.91,1.735,3.504,2.585,5,1c2.473-2.591-2.158-3.718-2-7
	c2.711-0.622,2.488-4.179,6-3.998c3.869-0.871,3.558,2.44,6,2.998C194.044,236.577,182.452,250.973,176.296,249.909z
	 M205.296,270.909c1.326-1.675,2.649-3.354,2-7C200.081,255.637,193.084,272.677,205.296,270.909z M221.296,276.909
	c4.442,0.442,7.44-0.56,7-5C225.598,264.665,215.104,272.084,221.296,276.909z"/>
<path fill="#FFFFFF" d="M192.296,206.909c6.542,2.579,12.495,10.672,11,18C199.703,219.382,192.198,212.839,192.296,206.909z"/>
<path fill="#FFFFFF" d="M185.296,207.909c8.599,5.049,16.068,15.498,17,25C195.898,225.307,189.633,217.573,185.296,207.909z"/>
<path fill="#FFFFFF" d="M181.296,210.909c7.153,3.521,13.153,16.842,19,25C189.457,232.083,183.06,223.812,181.296,210.909z"/>
<path fill="#FFFFFF" d="M269.297,215.909c5.738,0.928,9.008,4.323,15,5.001c0.127,5.794-5.609,5.724-10,6.997
	c0.389,2.946,4.711,1.956,6,4.002c0.127,1.794-1.225,2.108-1.002,4c-4.986-2.013-10.012-3.988-14.998-6
	c0.686-4.647,5.467-5.199,10-5.999c0.029-3.364-4.631-2.039-6-4.001C268.17,218.117,269.52,217.8,269.297,215.909z"/>
<path fill="#FFFFFF" d="M364.297,235.909c-0.977-1.022-1.977-2.022-3-3C362.822,216.363,379.656,233.198,364.297,235.909z"/>
<path fill="#FFFFFF" d="M268.297,233.909c-0.098,2.569-3.904,1.43-4,4c10.061-7.558,15.094,14.106,2,7
	c0.273-2.062,3.725-0.941,4-3.001c-1.08-1.655-4.762,2.506-9,0.999C256.064,237.657,263.248,229.014,268.297,233.909z"/>
<path fill="#FFFFFF" d="M255.297,240.909c5.566,1.766,7.258,7.407,12,10c-1.428,3.907-4.094,6.573-8,8c-3.811-2.95,0.564-4.05,2-7
	c-3.512-0.587-3.291,4.727-6,2c-2.693-2.679,1.271-3.802,2-5.998c-3.541-0.543-2.459,3.539-6,2.998
	c-0.443-0.892-0.879-1.789-2-1.999C249.75,244.695,254.025,244.307,255.297,240.909z"/>
<path fill="#FFFFFF" d="M197.296,250.909c-2.442-0.558-2.131-3.869-6-2.998c-3.512-0.181-3.289,3.376-6,3.998
	c-0.158,3.282,4.473,4.409,2,7c-1.496,1.585-4.09,0.735-5-1c-2.267,1.065-3.634,3.032-4,6c0.096,3.905,4.041,3.958,6,5.999
	c-14.535,3.314-8.545-12.311-8-19.999C182.452,250.973,194.044,236.577,197.296,250.909z"/>
<path d="M417.297,249.909c18.574-7.501,19.828,20.63,5,21C411.924,271.168,405.287,254.759,417.297,249.909z M430.297,258.909
	c-0.291-6.32-4.826-7.769-9-7C399.896,255.843,431.324,281.326,430.297,258.909z"/>
<path d="M365.297,249.909c5.818,5.969,2.996,17.092-4,16.999C352.371,266.792,349.875,247.223,365.297,249.909z M357.297,254.909
	c-0.44,5.106,0.396,8.938,5,9C369.225,260.247,362.83,246.54,357.297,254.909z"/>
<path fill="#FFFFFF" d="M421.297,251.909c4.174-0.769,8.709,0.68,9,7C431.324,281.326,399.896,255.843,421.297,251.909z"/>
<path fill="#FFFFFF" d="M362.297,263.909c-4.604-0.062-5.44-3.894-5-9C362.83,246.54,369.225,260.247,362.297,263.909z"/>
<path fill="#FFFFFF" d="M207.296,263.909c0.649,3.646-0.674,5.325-2,7C193.084,272.677,200.081,255.637,207.296,263.909z"/>
<path d="M383.297,279.909c-5.729,4.128-14.795,1.827-16-3C364.148,264.307,389.328,265.014,383.297,279.909z M370.297,276.909
	c2.98,2.76,7.359,3.587,11,0.999C383.469,269.923,368.436,267.68,370.297,276.909z"/>
<path fill="#FFFFFF" d="M409.297,268.909c1.379,7.133-5.035,9.231-10,7C397.705,269.016,404.385,266.082,409.297,268.909z"/>
<path fill="#FFFFFF" d="M228.297,271.909c0.439,4.44-2.559,5.442-7,5C215.104,272.084,225.598,264.665,228.297,271.909z"/>
<path d="M383.297,312.909c-11.602,6.134-18.149,20.896-36,16c-22.846-6.269-42.029-34.14-68.002-35
	c1.666,7.391,12.389,7.762,13.002,15.999c0.348,4.683-6.373,10.582-9,17.001c-2.715,6.631-1.766,14.628-6,20
	c-11.309,14.342-57.406,14.058-82,12c-13.412-1.123-32.051-4.396-38-12.999c-3.125-4.521-3.055-11.762-5-17.001
	c-2.297-6.188-9.466-12.685-9-19.001c0.657-8.914,10.143-8.434,14-15.999c-31.882-1.175-49.227,38.657-79,36
	c-11.655-1.04-15.17-12.07-26-16c34.311,3.081,59.494-37.472,89-42c25.201-3.869,29.312,16.633,38,34.001
	c-3.053,9.277-14.746,9.921-20,16.999c27.76,15.29,86.799,14.192,116,1.001c-2.936-10.319-17.418-7.219-19-17.001
	c-1.1-6.786,12.668-29.173,17-31.999c5.842-3.817,14.473-4.717,22-3.001C324.299,278.521,352.426,318.835,383.297,312.909z
	 M157.296,322.909c0.818-12.183,17.098-8.902,20-19C167.123,280.081,129.796,314.604,157.296,322.909z M288.297,307.909
	c-2.385-10.533-30.066-18.877-30-4c0.043,10.12,20.23,7.059,20.998,19C285.912,317.479,289.965,315.277,288.297,307.909z"/>
<path fill="#FFFFFF" d="M381.297,277.908c-3.641,2.588-8.02,1.761-11-0.999C368.436,267.68,383.469,269.923,381.297,277.908z"/>
<path d="M208.296,283.909c6.481,0.852,11.883,2.782,19,3c0,4,0,8,0,12.001c1.373,1.96,6.127,0.539,8,1.999
	c2.527,3.382,2.479,9.495,0,13c-2.323,2.416-2.678-1.562-5-2c-2.396,7.604-6.125,13.875-11,19.001
	c-9.006-1.995-11.017-10.983-14-19.001c-3.417-0.75-1.271,4.062-5,3c-2.484-4.193-2.943-12.084,1-15
	c2.656-0.011,5.711,0.378,7-0.999C208.296,293.909,208.296,288.909,208.296,283.909z M211.296,300.909
	c0.238,3.146,6.489,5.442,3,8.999c-4.333-0.333-3.795-5.537-6-7.999c-6.73-1.752-10.414,5.675-6,9c0.261-1.406,2.193-1.142,3-2
	c2.596,3.069,3.83,7.504,5,12c1.666,0,3.334,0,5,0c3.226-2.502-2.956-8.229,3-8c4.685,1.8-1.664,4.907,1,8c1.666,0,3.334,0,5,0
	c2.367-2.968,2.168-8.498,5-11.001c2.354-2.446,1.858,1.494,5,1.001c1.506-4.74,0.392-9.552-6-9c-4.739,0.594-1.83,8.837-8,7.999
	c-0.968-5.967,4.388-5.612,4-10.998C222.438,289.984,211.423,290.9,211.296,300.909z M220.296,327.908
	c0.317-2.317-0.16-3.838-1-4.999C211.585,322.152,215.356,331.139,220.296,327.908z"/>
<path fill="#FFFFFF" d="M224.297,298.91c0.387,5.386-4.968,5.031-4,10.998c6.17,0.838,3.26-7.405,8-7.999
	c6.391-0.552,7.506,4.26,6,9c-3.141,0.493-2.645-3.447-5-1.001c-2.832,2.503-2.633,8.033-5,11.001c-1.666,0-3.334,0-5,0
	c-2.664-3.093,3.684-6.2-1-8c-5.956-0.229,0.226,5.498-3,8c-1.666,0-3.334,0-5,0c-1.17-4.496-2.404-8.931-5-12
	c-0.807,0.858-2.739,0.594-3,2c-4.414-3.325-0.73-10.752,6-9c2.205,2.462,1.667,7.666,6,7.999c3.489-3.557-2.762-5.854-3-8.999
	C211.423,290.9,222.438,289.984,224.297,298.91z"/>
<path fill="#FFFFFF" d="M177.296,303.909c-2.902,10.098-19.182,6.817-20,19C129.796,314.604,167.123,280.081,177.296,303.909z"/>
<path fill="#FFFFFF" d="M279.295,322.909c-0.768-11.941-20.955-8.88-20.998-19c-0.066-14.877,27.615-6.533,30,4
	C289.965,315.277,285.912,317.479,279.295,322.909z"/>
<path fill="#FFFFFF" d="M219.296,322.909c0.84,1.161,1.317,2.682,1,4.999C215.356,331.139,211.585,322.152,219.296,322.909z"/>
<path d="M241.297,341.908c3.752,6.158-3.811,11.496-8,7.002C232.266,342.88,235.512,341.125,241.297,341.908z"/>
<path d="M425.297,221.909c1.904,7.353-11.646,10.108-19,5.998c1.307,4.026,3.453,7.214,9,7.001
	c-18.322,10.884-18.979-15.21-26-23.999c-3.059,11.059-14.682,29.489-1,37.002c3.775,0.848,4.693-3.322,7-1.002
	c1.039,6.437,0.057,13.573,1,22c2.43,0.729,5.693-6.277,13-4c0.56,1.44,1.56,2.44,3,3c1.994,10.118-8.414,14.647-15,9.999
	c0.299,5.966-0.399,10.935-3,14c-2.69-0.434-5.129-3.751-8-0.999c-0.539,3.87,2.549,4.118,3,7c-1.676,5.991-7.729,7.602-14,9
	c-1.688-2.931,2.258-7.327,1.998-12c-3.838,2.493-2.322,10.343-7.998,11.001c2.576-15.795,24.912-21.04,16-51.001
	c-15.078-3.849-33.426-11.482-33-33.999c-16.719-3.074-18.76,15.062-11,22.999c-14.465,4.44-31.633,21.021-47,12.001
	c2.672,7.095-2.504,13.609-14,11.999c0.658-3.341,3.107-4.892,4-8c-2.992-1.618-4.072,7.229-9,6.999
	c-2.039-2.092,2.207-5.113,3.998-6.999c1.674-1.761,4.953-5.812,7.002-7.001c11.846-6.867,38.814-2.194,41-13.999
	c1.221-6.591-8.676-10.431-10-17c-3.629-18.013,13.119-25.943,32-24c-3.518-16.814-29.24-11.427-33-28
	c-1.024,10.951-20.367,8.07-17-5c4.195-5.318,13.164-2.389,16,1.999c0.021-2.354-1.725-2.942-1.002-5.999
	c-10.016,0.695-19.457-3.434-26.998-2c1.916,7.417,4.447,14.223,12,16c1.428,4.354-3.418,4.598-1,7
	c7.373-5.863,14.516,1.74,15.998,8c-4.244,0.245-5.383-2.615-10-1.999c2.076,2.591,8.348,0.983,7.002,6.999
	c-19.812-3.855-25.379-21.956-33-38c-0.63-1.41-2.105-3.672,3.998-6c5.453-0.215,12.023,0.689,16.002-1
	c-5.064-6.602-9.756-13.578-16.002-19c-5.371,0.805-8.764,3.668-10.998-2c5.107-11.661,19.619-7.46,25,1
	c3.164,0.164,3.342-2.658,7-2c6.49,2.508,3.598,14.402,10.998,16c2.559-15.108,12.021-23.315,14.002-39c4.178-0.844,4.723,1.943,8,2
	c9.996-7.598,32.414-11.422,26-29c-2.084,1.583-0.338,6.996-2,9c-4.352,5.345-14.305,4.414-20,1c-3.334,1.666-1.312,8.689-5,10
	c-2.17,0.168-0.453-3.547-1-5c-3.44,3.225-1.992,11.34-9,11c1.15-1.182,1.133-3.535,1-6c-2.332,1.068-3.949-0.299-7.998-2
	c0.447-6.216,9.486-3.844,10.996-9c-5.838-2.814-10.27,4.375-16,5c-5.012-13.256,6.99-12.756,16-21
	c3.594-3.286,6.314-8.395,13.002-9c-11.762-16.571-25.809-30.858-37-48c16.242,12.758,29.803,28.195,45,42
	c1.822-2.375,2.336-6.058,1-9c5.824,1.841,8.574,6.76,11,12c9.094-0.095,12.566,5.434,21,6c-0.799,2.203-2.008,3.992-5,4
	c8.514,3.486,12.572,11.426,18,18c-1.668,0-3.334,0-5,0c6.111,5.889,2.019,21.982,6,30c-3.631-0.703-5.442-3.223-8-5c0,7,0,14,0,21
	c-3.779,0.111-5.377-1.957-6-5c-3.059,2.608-3.496,5.975,0,8c-3.486,10.279-19.492,13.335-20,25c-0.377,8.664,7.922,13.916,12,22
	c2.092-12.979,22.34-5.215,16,7c-1.947,1.402-6.438,3.266-9,1c3.275,6.953,7.715,10.334,11,16c2.305,3.978,3.945,13.677,10.998,16
	c7.469,2.46,14.305-3.521,15.002-8c3.799-24.412-38.84-34.408-33-64c1.299-6.582,5.631-15.829,20-15c5.937,0.342,8.396,5.375,17,5
	c5.74,4.926,2.254,19.08,11,21c-7.561,3.872-11.217-4.768-15-8c1.502,13.163,17.949,11.383,21,23c-2.44,1.094-8.94-4.289-15-7
	c-9.252-4.141-17.424-6.132-19-18c0.783-3.217,1.371-6.629,3-9c-8.58-5.484-16.826,3.434-18,10c-5.07,28.338,52.088,40.443,27,72
	C420.857,224.139,423.965,223.912,425.297,221.909z M336.297,75.909c2.062-2.602,7.937-1.398,10-4
	C342.898,67.497,332.299,68.852,336.297,75.909z M351.297,125.909c-3.594,2.354-9.926,0.341-10-4c1.002,0.004,1.189-0.811,2-1
	c3.234-1.236,0.764,3.236,4,2c2.482-2.6,0.207-6.082-2.002-7c2.312-1.021,2.07-4.598,2.002-8c-4.885-0.551-5.012,3.656-7,6
	c-2.385-2.266-5.42,0.457-6,3c1.264,1.403,5.275,0.057,4,4c-5.186-0.148-9.115-1.553-9.002-7c2.041,0.295,1.963,2.705,4.002,3
	c-0.225-1.891,1.125-2.207,1-4c-0.016-1.651-2.772-0.56-3-2c1.328-1.004,3.721-0.945,4-3c-2.354,0.022-2.945-1.723-6.002-1
	c-0.494,5.504-3.084,8.914-3.998,14c15.373,8.626,29.889,18.111,46,26c4.203-3.064,14.4-13.645,4.998-13
	c1.656-0.428-0.088,3.729-0.998,4c0-1,0-2,0-3c-3.135-0.468-2.82,2.514-4,4c1.721-0.055,2.562,0.77,3,2
	c-3.412,2.92-11.018-2.605-8-6c3.08-0.748,1.219,3.447,5,2c0.226-0.775,0.025-1.973,1-2c0.473-3.14-2.69-2.643-3-5
	c2.984-0.683,3.353-3.981,3-8c-4.721-0.053-5.111,4.223-8,6c-1.037-4.006-5.738-0.672-6,2c2.322,0.344,4.688,0.646,4,4
	c-3.938,0.271-6.949-0.385-8.002-3c0.172-1.496-0.354-3.69,1.002-4c0.096,1.571-0.135,3.467,2,3c-0.045-3.045,2.111-3.889,3-6
	c-1.496-0.17-3.69,0.357-4-1c0.738-1.595,4.896,0.229,4-3c-3.586,0.253-3.664-3.003-7-3c-0.547,1.453,1.168,5.168-1,5
	c-0.486-1.182-1.065-2.268-2-3C349.15,124.362,345.336,125.51,351.297,125.909z M302.297,140.909c2.613-1.052,3.271-4.062,3-8
	C300.488,125.79,293.951,140.575,302.297,140.909z M302.297,170.909c2.385,2.172,6.113,4.107,10,2
	C315.391,164.755,300.016,160.724,302.297,170.909z M387.297,188.909c4.484-4.092,0.441-11.752-7-10
	C377.887,184.05,381.471,188.982,387.297,188.909z M374.297,212.909c3.898,4.459,11.428,0.891,10-6
	C380.484,202.536,373.26,206.408,374.297,212.909z M361.297,232.909c1.023,0.978,2.023,1.978,3,3
	C379.656,233.198,362.822,216.363,361.297,232.909z M399.297,275.909c4.965,2.231,11.379,0.133,10-7
	C404.385,266.082,397.705,269.016,399.297,275.909z"/>
<path d="M105.296,37.909c2.488-0.539,2.041-0.091,3-3c4.354,0.979,0.893,9.773,2,14c-13.229,1.771-21.398,8.602-33,12
	c-0.938-5.062-6.65-5.35-8-10c2.203-3.752,3.992,3.85,4-1c1.363,0.18,4.85,4.753,1,4c0.85,1.483,2.517,2.15,5,2
	c1.23-0.437,2.054-1.279,2-3c-5.396-0.397-3.456-4.025-6-10c5.609,1.801,5.995,3.949,9,7c-0.811-0.189-0.996-1.004-2-1
	c-0.424,2.09,0.686,2.648,1,4c3.589,0.589,4.838-1.162,7-2c0-1.334,0-2.666,0-4c-1.242-2.855-2.908,4.346-5,1
	c0.162-1.162-0.221-1.779-1-2c0.31-1.357,2.504-0.83,4-1c-0.437-1.23-1.279-2.054-3-2c0.299-2.701,4.207-1.793,5-4
	c1.984,3.691,0.296,5.848,5,3c-0.086,1.42-0.165,2.832,1,3c-0.658,2.995-2.138-0.956-4,0c-0.424,2.09,0.686,2.648,1,4
	c4.004,0.004,7.475-0.525,7-5c-4.936-0.74-0.873-5.509-2-11c5.416,1.809,0.868,7.494,7,8c-0.227,1.44-2.984,0.349-3,2
	c-0.044,1.711,0.743,2.59,2,3c3.135,0.468,2.818-2.514,4-4C106.36,42.054,106.901,40.179,105.296,37.909z"/>
<path d="M172.296,74.909c1.367,1.11-2.439,5.504-1,10c1.369,1.946,4.209-3.057,5-5c2.307,1.693,1.324,6.676,4,8
	c-1.915,2.416-5.213-1.445-8,1c2.659,7.4,25.816,4.268,17-5c-3.125-0.457-3.197,2.137-3,5c-3.342-0.789-3.969-8.053-2-11
	c5.014-0.348,6.85,2.484,8,6c2.227-2.107,2.754-5.912,6-7c4.797-0.666,4.875,7.146,3,10c-1.771-0.895-1.274-4.059-5-3
	c-4.389,11.301,20.324,9.635,19-1c-1.162-1.418-6.203,1.74-7,4c-2.295-2.039-0.361-8.305-1-12c2.524,1.475,4.468,3.533,8,4
	c0.583-4.621-6.667-6.615-5-9c5.334,0,10.666,0,16,0c-3.196,2.137-5.562,5.105-7,9c4.456,0.745,7.151-5.457,9-4c0,4,0,8,0,12
	c-2.446-2.219-5.403-3.93-9-5c-1.692,11.525,23.604,13.634,20,2c-4.426-1.426-2.616,3.384-6,3c-0.017-5.152-1.299-6.396,1-10
	c5.25-0.584,6.709,2.624,7,7c4.24-1.092,2.74-7.926,10-6c2.496,3.475-0.135,8.734-2,11c-0.955-0.697,0.504-4.553-3-5
	c-1.313,0.354-1.573,1.761-3,2c-0.662,8.809,14.994,8.688,19,4c-0.912-3.799-4.021-0.731-7-1c0.533-3.467,2.677-5.324,3-9
	c2.013,1.987,3.271,4.73,6,6c0.802-5.135-1.071-7.595-2-11c2.759,1.574,5.877,2.79,9,4c-2.403,9.494-13.207,17.072-13,27
	c0.078,3.803,3.615,5.24,3,9c-0.135,0.818-5.121,5.799-5,7c0.257,2.557,4.815,4.018,7,6c5.89,5.35,14.849,14.291,15.998,22
	c-4.271,3.729-3.879,4.842-3.998,8c2.702,5.258,3.884,8.115,6,12c2.869,7.508,12.64,17.202,11,36.001
	c-2.174,24.917-19.219,50.374-33,59.999c-10.856,0.188-18.584-2.75-27-5c0.134-10.996,11.556-12.908,18-19.001
	c11.578-10.946,15.55-23.514,18-43.999c-14.004-2.33-32.332-0.335-48-1c-2.331,15.669-0.335,35.664-1,53
	c1.965,2.37,6.632,2.034,11,2c-0.06,3.276-2.844,3.821-2,8c-6.159-1.507-11.291-4.046-17-6c0.69-1.976,2.668-2.666,5-3
	c0-17.666,0-35.333,0-53c-14.003-2.33-32.331-0.335-48-1c-1.357,0.309-0.83,2.504-1,4c-3.986-8.348-5-19.073-17-34.001
	c-2.06-17.458,15.809-34.532,29-43.999c-1.949-3.051-5.26-4.74-6-9c6.612-12.157-4.046-25.277-10-34
	C165.36,77.307,169.761,77.041,172.296,74.909z M181.296,119.909c11.785-5.114,26.674-10.434,43-9c12.466,1.095,22.027,7.688,31,8
	C273.268,94.932,154.159,98.256,181.296,119.909z M167.296,193.91c16.334,0,32.666,0,49,0c0-19.335,0-38.667,0-58.001
	C184.067,139.347,169.476,160.421,167.296,193.91z M219.296,135.909c0,19,0,38,0,57c14.366,2.301,32.978,0.357,49,1.001
	C265.58,160.958,251.516,139.356,219.296,135.909z"/>
<path fill="#FFFFFF" d="M350.297,118.909c0.935,0.732,1.514,1.818,2,3c2.168,0.168,0.453-3.547,1-5c3.336-0.003,3.414,3.253,7,3
	c0.896,3.229-3.262,1.405-4,3c0.31,1.357,2.504,0.83,4,1c-0.889,2.111-3.045,2.955-3,6c-2.135,0.467-1.904-1.429-2-3
	c-1.356,0.31-0.83,2.504-1.002,4c1.053,2.615,4.064,3.271,8.002,3c0.688-3.354-1.678-3.656-4-4c0.262-2.672,4.963-6.006,6-2
	c2.889-1.777,3.279-6.053,8-6c0.353,4.019-0.016,7.317-3,8c0.31,2.357,3.473,1.86,3,5c-0.975,0.027-0.774,1.225-1,2
	c-3.781,1.447-1.92-2.748-5-2c-3.018,3.395,4.588,8.92,8,6c-0.438-1.23-1.279-2.055-3-2c1.18-1.486,0.865-4.468,4-4c0,1,0,2,0,3
	c0.91-0.271,2.654-4.428,0.998-4c9.402-0.645-0.795,9.936-4.998,13c-16.111-7.889-30.627-17.374-46-26
	c0.914-5.086,3.504-8.496,3.998-14c3.057-0.723,3.646,1.022,6.002,1c-0.279,2.055-2.672,1.996-4,3c0.228,1.44,2.984,0.349,3,2
	c0.125,1.793-1.225,2.109-1,4c-2.039-0.295-1.961-2.705-4.002-3c-0.113,5.447,3.816,6.852,9.002,7c1.275-3.943-2.736-2.597-4-4
	c0.58-2.543,3.615-5.266,6-3c1.988-2.344,2.115-6.551,7-6c0.068,3.402,0.312,6.979-2.002,8c2.209,0.918,4.484,4.4,2.002,7
	c-3.236,1.236-0.766-3.236-4-2c-0.811,0.189-0.998,1.004-2,1c0.074,4.341,6.406,6.354,10,4
	C345.336,125.51,349.15,124.362,350.297,118.909z"/>
<path d="M212.296,139.909c1.822,2.868-6.004,4.629-8,7c2.725,1.943,8.709,0.623,11,3c-5.535,3.372,2.61,8.704-5,10
	c-0.34-2.006,0.205-3.129,2-3c-0.271-3.506-4.428,1.807-4-1c-0.596,2.137-4.459,6.116-7,3c-0.689-3.326,2.067-1.611,3-1
	c-4.865-4.281-14.873,5.836-20,0c1.103-4.031,6.711,0.902,10-2c-2.056-2.396-4.223-3.641-2-7c4.426-0.154-0.473,2.827,2,4
	c1.689-1.645,1.241-5.426,3-7c2.488-0.154,3.096,1.57,5,2c0.281,1.615-0.945,1.723-1,3c2.519,1.182,10.468,4.053,12,0
	c-2.726-1.941-8.359-0.975-11-3C202.706,142.318,209.358,142.972,212.296,139.909z"/>
<path fill="#FFFFFF" d="M216.296,135.909c0,19.334,0,38.666,0,58.001c-16.334,0-32.666,0-49,0
	C169.476,160.421,184.067,139.347,216.296,135.909z M202.296,147.909c2.641,2.025,8.274,1.059,11,3c-1.532,4.053-9.481,1.182-12,0
	C201.352,149.632,202.578,149.524,202.296,147.909c-1.904-0.43-2.512-2.154-5-2c-1.759,1.574-1.311,5.355-3,7
	c-2.473-1.173,2.426-4.154-2-4c-2.223,3.359-0.056,4.604,2,7c-3.289,2.902-8.897-2.031-10,2c5.127,5.836,15.135-4.281,20,0
	c-0.933-0.611-3.689-2.326-3,1c2.541,3.116,6.404-0.863,7-3c-0.428,2.807,3.729-2.506,4,1c-1.795-0.129-2.34,0.994-2,3
	c7.61-1.296-0.535-6.628,5-10c-2.291-2.377-8.275-1.057-11-3c1.996-2.371,9.822-4.132,8-7
	C209.358,142.972,202.706,142.318,202.296,147.909z M195.296,164.909c1.182,0.484,2.268,1.066,3,1.999c-2,0-4,0-6,0
	c2.167-2.284,0.363-6.239-3-5.999c-3.195,0.139-2.205,4.461-4,5.999c-2.032-0.728-4.084-3.009-2-4.999c-1,0-2,0-3,0
	c-0.057,0.609-0.149,1.186-1,1c-0.181,2.827,3.76,2.329,1,5c3.38-0.38,4.267,1.732,6,3c-2.977,1.326-5.074,1.025-7-1
	c0.299,1.966-1.35,1.982-2,3c6.445,4.312,13.514,0.746,21-3c1.439,0.561,2.44,1.561,3,3c-1.912,0.466-4.305-3.082-4,1
	c2.236,3.812,6.783-0.057,8-3c5.445-0.438,6.603-1.262,4,3c1.479,0.521,2.521,1.479,4,2c3.183-10.85-9.085-6.248-13-10c4,0,8,0,12,0
	c-0.219,1.257-1.558,2.044,1,2c3.142-6.125-13.037-0.73-16-4c2.088-2.339,13.379,3.195,15-2
	C207.749,163.765,197.895,159.171,195.296,164.909z M192.296,178.909c-1.236,3.236,3.236,0.764,2,4c-2.091-2.18-2.854,0.5-6,0
	c1.271-4.246,0.429-6.305-5-6c-1.171,1.496-1.243,4.09-3,5c-3.195-0.139-2.205-4.461-4-6c-0.211,1.209-1.109,0.615-2,0
	c-1.428,4.352,3.418,4.598,1,7c3.253,0.08,5.388,1.279,6,4c-5.646,1.426-4.701-1.279-9,0c4.734,10.551,20.599-4.548,28,1.001
	c-1.278-0.056-1.385-1.284-3-1.001c-0.656,7.695,8.527,1.871,7,0c2.873,1.396,5.08-2.727,6,0c-0.012,1.322-1.753,0.915-2,2
	c0.608,0.059,1.185,0.148,1,1c0.058,0.611,0.149,1.184,1,1c-0.308-3.125,2.89,2.542,3-1c-0.248-3.596-2.239-5.238,0-9
	c-1.786-1.214-5.817-0.184-7-2c1.662-0.118,9.058,0.547,6-1C204.649,177.478,198.935,176.661,192.296,178.909z"/>
<path fill="#FFFFFF" d="M261.297,187.91c-2.928,1.838-25.904,0.688-37,0.999c0-16,0-32,0-48c2.33,13.67,0.336,31.664,1,47.001
	C237.297,187.91,249.297,187.91,261.297,187.91z"/>
<path d="M253.297,174.909c-1.904,1.873-2.514,0.109-5,0c0.018,3.314,5.65,1.016,7,3c0.434,4.387-3.064,3.285-1.002,6.999
	c-3.42-0.994-3.004,0.422-4.998-1.999c-0.551-2.217,1.908-1.425,2-3c-2.318,0.396-6.014-2.219-8-5c-4.004,0.708-0.059,4.693-2,6
	c-5.352-0.377-7.291,2.018-9-2c1.23-3.038,3.438,1.083,6,0c0.408-2.409-1.826-2.174-1-5c1.182-1.15,3.535-1.131,6-1
	c-1.615-1.387-3.166-2.834-5-4c-5.035,0.604-5.619,5.264-11,3.001c-0.127-1.795,1.225-2.11,1-4.001c13.988,0.551-1.867-7.727,0-15
	c0.85-0.184,0.941,0.391,1,1c0.85,0.184,0.941-0.391,1-1c0.76,3.906,4.002,5.331,5,9c2.039-0.295,1.961-2.705,4-3
	c-0.311-1.357-2.504-0.83-4-1c0.826-2.826-1.41-2.591-1-5c15.9-4.406,3.531,20.764,18,21c-0.924-5.408-8.352-4.316-7-12
	C248,166.204,251.676,169.53,253.297,174.909z"/>
<path d="M222.297,138.909c23.34,5.062,39.613,24.57,41,51c-5.074,1.908-17.283-2.559-22,1.999c-3.42-5.146-14.77,0.297-19-1.999
	c-0.56-2.871,3.672-20.379-1-27C226.871,157.478,220.71,143.897,222.297,138.909z M225.297,187.91
	c-0.664-15.337,1.33-33.331-1-47.001c0,16,0,32,0,48c11.096-0.311,34.072,0.839,37-0.999
	C249.297,187.91,237.297,187.91,225.297,187.91z M247.297,156.909c-5.832-3.941-11.646-12.874-20-11c-2.436,5.773-0.842,16.896,2,18
	c-4.234,3.766-2.822,13.178-3,20.999c4.4,4.104,13.072,1.354,17-0.999c1.992,4.008,9.082,2.918,15,3
	C261.484,173.813,250.604,166.776,247.297,156.909z"/>
<path d="M212.296,161.909c-1.621,5.195-12.912-0.339-15,2c2.963,3.27,19.142-2.125,16,4c-2.558,0.044-1.219-0.743-1-2c-4,0-8,0-12,0
	c3.915,3.752,16.183-0.85,13,10c-1.479-0.521-2.521-1.479-4-2c2.603-4.262,1.445-3.438-4-3c-1.217,2.943-5.764,6.812-8,3
	c-0.305-4.082,2.088-0.534,4-1c-0.56-1.439-1.561-2.439-3-3c-7.486,3.746-14.555,7.312-21,3c0.65-1.018,2.299-1.034,2-3
	c1.926,2.025,4.023,2.326,7,1c-1.733-1.268-2.62-3.38-6-3c2.76-2.671-1.181-2.173-1-5c0.851,0.186,0.943-0.391,1-1c1,0,2,0,3,0
	c-2.084,1.99-0.032,4.271,2,4.999c1.795-1.538,0.805-5.86,4-5.999c3.363-0.24,5.167,3.715,3,5.999c2,0,4,0,6,0
	c-0.732-0.933-1.818-1.515-3-1.999C197.895,159.171,207.749,163.765,212.296,161.909z"/>
<path d="M212.296,177.909c3.058,1.547-4.338,0.882-6,1c1.183,1.816,5.214,0.786,7,2c-2.239,3.762-0.248,5.404,0,9
	c-0.11,3.542-3.308-2.125-3,1c-0.851,0.184-0.942-0.389-1-1c0.185-0.852-0.392-0.941-1-1c0.247-1.085,1.988-0.678,2-2
	c-0.92-2.727-3.127,1.396-6,0c1.527,1.871-7.656,7.695-7,0c1.615-0.283,1.722,0.945,3,1.001c-7.401-5.549-23.266,9.55-28-1.001
	c4.299-1.279,3.354,1.426,9,0c-0.612-2.721-2.747-3.92-6-4c2.418-2.402-2.428-2.648-1-7c0.891,0.615,1.789,1.209,2,0
	c1.795,1.539,0.805,5.861,4,6c1.757-0.91,1.829-3.504,3-5c5.429-0.305,6.271,1.754,5,6c3.146,0.5,3.909-2.18,6,0
	c1.236-3.236-3.236-0.764-2-4C198.935,176.661,204.649,177.478,212.296,177.909z M193.296,179.909c1.514,1.221,8.613,1.963,10,0
	C200.423,180.05,195.5,177.13,193.296,179.909z M203.296,181.909c-9.471,1.463-2.796,0.488,7,1c0.779-0.221,1.162-0.838,1-2
	C207.251,180.354,205.677,181.542,203.296,181.909z"/>
<path d="M261.297,203.909c-3.961,4.126-0.664,1.161,0,7c-0.961,1.688-3.143,2.944-5,1c-0.469-2.134,1.428-1.904,3-2.001
	c-0.758-3.646-3.193,0.097-7-0.999c-1.484,0.437,0.395,1.278,0,3c-1.787-0.005-5.818,2.692-7,0c-0.689-3.328,2.066-1.611,3-1
	c-4.305-6.968-10.424,1.153-14,2c-3.902,0.922-6.766-1.783-11,0c-0.701-3.078-0.701-1.921,0-5c2.76,1.19,3.51,2.838,7,1
	c-4.533-2.695-9.033-5.007-7-9.999c3.836,0.164,0.971,7.027,6,5.999c0.584-1.066,1.016-3.033,2-5.999
	c4.557-0.192,6.725,2.604,5,5.999c8.986-1.218,17.066,2.319,24,0c-4.232-3.771-18.875,2.873-20-4c4.82-1.848,12.654-0.681,19-1
	c-3.738,4.6-13.883-0.286-18,2C245.76,204.779,256.795,201.078,261.297,203.909z"/>
<path d="M256.297,217.909c-4.814,2.805,3.912,10.057-5,9c-0.881-3.214,3.295-1.371,2.998-4c-6.42-1.431-10.223,8.188-13.998,3
	c-0.689-3.326,2.066-1.611,3-1c-4.695-4.732-11.455,4.091-19,2.998c-1.891-0.109-0.693-3.306-3-2.998
	c2.939-3.769,3.401,1.108,8-0.999c-3.061-4.167-5.824-2.539-6-9.001c0.85-0.187,0.941,0.391,1,1c0.85,0.184,0.941-0.39,1-1
	c2.25,0.416-0.15,5.481,3,5c2.154-0.847,1.613-4.388,3-6c4.115-0.769,6.295,3.411,4,6c6.666,0,13.332,0,20,0
	c-2.826-3.509-15.156,2.487-15-4c3.713-1.618,9.836-0.831,15-1c-2.65,3.959-11.291,0.396-14,1.999
	C244.32,219.218,251.609,217.264,256.297,217.909z"/>
<path d="M251.297,229.909c-2.625,3.014-9.805,1.077-12,2c2.037,2.295,8.305,0.36,12,1c0.457,3.124-2.137,3.196-5,3
	c0.16-1.173,1.822-0.845,3-1.001c-1.67-2.663-9.223,0.556-11-1.999C240.779,227.835,244.785,230.13,251.297,229.909z"/>
<path d="M230.297,228.909c3.703-0.58,6.186,2.694,4,5c1.387,2.278,6.961,0.373,10,0.999c3.465,3.355-0.113,9.06-4,7
	c-1.555-3.555,3.395-0.604,3-2.999c-0.162-1.173-1.824-0.847-3-1c-2.246,0.42-0.027,5.307-2,6c-1.164-0.163-1.779,0.223-2,1
	c-0.859-5.347-17.224,1.952-14-6c3.139,1.569,2.711,2.039,7,1c-3.791-3.857-6.242-4.64-7-10c4.301-0.968,2.77,3.896,5,4.999
	C228.963,233.575,228.85,230.462,230.297,228.909z"/>
<rect id="_x3C_Slice_x3E__1_" x="0.296" y="-9.091" fill="none" width="443" height="399"/>
</svg>
